<svg width="58" height="58" viewBox="0 0 58 58" fill="none" xmlns="http://www.w3.org/2000/svg">
<path d="M28.9997 53.8574C42.7279 53.8574 53.8569 42.7284 53.8569 29.0002C53.8569 15.272 42.7279 4.14307 28.9997 4.14307C15.2715 4.14307 4.14258 15.272 4.14258 29.0002C4.14258 42.7284 15.2715 53.8574 28.9997 53.8574Z" stroke="#1463FF" stroke-width="2"/>
<path d="M28.9996 29.0001C33.5757 29.0001 37.2853 25.2905 37.2853 20.7144C37.2853 16.1384 33.5757 12.4287 28.9996 12.4287C24.4235 12.4287 20.7139 16.1384 20.7139 20.7144C20.7139 25.2905 24.4235 29.0001 28.9996 29.0001Z" stroke="#1463FF" stroke-width="2"/>
<path d="M16.5713 41.4285C16.5713 34.1785 22.3713 30.0356 28.9999 30.0356C35.6284 30.0356 41.4284 34.1785 41.4284 41.4285" stroke="#1463FF" stroke-width="2" stroke-linecap="round"/>
</svg>
