<svg width="74" height="79" viewBox="0 0 74 79" fill="none" xmlns="http://www.w3.org/2000/svg">
<path d="M36.9998 39.5001C43.2874 39.5001 48.3845 34.0586 48.3845 27.3462C48.3845 20.6338 43.2874 15.1924 36.9998 15.1924C30.7123 15.1924 25.6152 20.6338 25.6152 27.3462C25.6152 34.0586 30.7123 39.5001 36.9998 39.5001Z" stroke="#1463FF" stroke-width="2"/>
<path d="M14.2305 63.8078C14.2305 51.0463 23.9074 42.5386 36.9997 42.5386C50.092 42.5386 59.7689 51.0463 59.7689 63.8078" stroke="#1463FF" stroke-width="2" stroke-linecap="round"/>
<path d="M51.2303 12.1538L54.0765 21.2692L62.6149 22.7884L56.3534 28.5615L57.7765 36.4615L51.2303 32.8153L44.6842 36.4615L46.1072 28.5615L39.8457 22.7884L48.3842 21.2692L51.2303 12.1538Z" fill="#FFC107"/>
</svg>
