<svg width="75" height="24" viewBox="0 0 75 24" fill="none" xmlns="http://www.w3.org/2000/svg">
<g clip-path="url(#clip0_198_2155)">
<path d="M69.1667 0H5.83333C2.61167 0 0 2.35051 0 5.25V18.75C0 21.6495 2.61167 24 5.83333 24H69.1667C72.3883 24 75 21.6495 75 18.75V5.25C75 2.35051 72.3883 0 69.1667 0Z" fill="#E03131"/>
<path d="M12.6776 16L13.8849 8.72727H16.7969C17.3319 8.72727 17.7652 8.80658 18.0966 8.9652C18.4304 9.12382 18.6636 9.34399 18.7962 9.62571C18.9287 9.90507 18.9643 10.227 18.9027 10.5916C18.853 10.8757 18.7524 11.1243 18.6009 11.3374C18.4517 11.5504 18.267 11.7256 18.0469 11.8629C17.8267 12.0002 17.5876 12.0973 17.3295 12.1541L17.3153 12.2251C17.59 12.237 17.8374 12.3151 18.0575 12.4595C18.2777 12.6016 18.4422 12.8028 18.5511 13.0632C18.66 13.3236 18.6849 13.6326 18.6257 13.9901C18.5618 14.3759 18.4091 14.7204 18.1676 15.0234C17.9261 15.3241 17.6042 15.562 17.2017 15.7372C16.8016 15.9124 16.3293 16 15.7848 16H12.6776ZM14.4283 14.7429H15.6818C16.108 14.7429 16.4335 14.66 16.6584 14.4943C16.8833 14.3286 17.0182 14.1096 17.0632 13.8374C17.094 13.6361 17.0739 13.4586 17.0028 13.3047C16.9342 13.1508 16.817 13.0301 16.6513 12.9425C16.4879 12.8549 16.2808 12.8111 16.0298 12.8111H14.7443L14.4283 14.7429ZM14.9219 11.7706H16.0618C16.2701 11.7706 16.4631 11.7339 16.6406 11.6605C16.8205 11.5848 16.9685 11.4782 17.0845 11.3409C17.2029 11.2012 17.2775 11.0367 17.3082 10.8473C17.3509 10.5821 17.2917 10.3703 17.1307 10.2116C16.9721 10.0507 16.7235 9.97017 16.3849 9.97017H15.2202L14.9219 11.7706ZM21.7321 16.1065C21.1734 16.1065 20.7105 15.9929 20.3436 15.7656C19.9766 15.536 19.7186 15.2116 19.5694 14.7926C19.4226 14.3712 19.3978 13.8729 19.4949 13.2976C19.5895 12.7365 19.7801 12.2441 20.0666 11.8203C20.3554 11.3965 20.7176 11.0663 21.1532 10.8295C21.5888 10.5928 22.0742 10.4744 22.6092 10.4744C22.969 10.4744 23.2946 10.5324 23.5858 10.6484C23.8793 10.7621 24.1232 10.9349 24.3173 11.1669C24.5114 11.3965 24.644 11.6842 24.715 12.0298C24.7884 12.3755 24.7872 12.7803 24.7115 13.2443L24.644 13.6598H20.0417L20.1873 12.7223H23.3691C23.4047 12.5045 23.3904 12.3116 23.3265 12.1435C23.2626 11.9754 23.1561 11.844 23.0069 11.7493C22.8578 11.6522 22.6743 11.6037 22.4565 11.6037C22.234 11.6037 22.0256 11.6581 21.8315 11.767C21.6374 11.8759 21.474 12.0192 21.3414 12.1967C21.2112 12.3719 21.1272 12.5625 21.0893 12.7685L20.9224 13.6989C20.8751 13.9853 20.8845 14.2232 20.9508 14.4126C21.0195 14.602 21.1378 14.7441 21.3059 14.8388C21.474 14.9311 21.6871 14.9773 21.9451 14.9773C22.1132 14.9773 22.2707 14.9536 22.4174 14.9062C22.5666 14.8589 22.6992 14.7891 22.8152 14.6967C22.9312 14.602 23.0259 14.4848 23.0993 14.3452L24.4806 14.4375C24.3528 14.7737 24.1587 15.0672 23.8983 15.3182C23.6378 15.5668 23.3242 15.7609 22.9572 15.9006C22.5926 16.0379 22.1842 16.1065 21.7321 16.1065ZM27.2923 12.8466L26.7667 16H25.2575L26.1665 10.5455H27.6048L27.4485 11.5078H27.5089C27.6817 11.1882 27.9255 10.9361 28.2404 10.7514C28.5576 10.5668 28.9187 10.4744 29.3235 10.4744C29.7023 10.4744 30.0183 10.5573 30.2717 10.723C30.5273 10.8887 30.7073 11.1243 30.8114 11.4297C30.918 11.7351 30.9357 12.1009 30.8647 12.527L30.2823 16H28.7695L29.3058 12.7969C29.3602 12.4631 29.3176 12.2027 29.1779 12.0156C29.0406 11.8262 28.8192 11.7315 28.5138 11.7315C28.3103 11.7315 28.1232 11.7753 27.9528 11.8629C27.7823 11.9505 27.6391 12.0784 27.5231 12.2464C27.4094 12.4122 27.3325 12.6122 27.2923 12.8466ZM33.9391 16.1065C33.3804 16.1065 32.9176 15.9929 32.5506 15.7656C32.1837 15.536 31.9256 15.2116 31.7765 14.7926C31.6297 14.3712 31.6048 13.8729 31.7019 13.2976C31.7966 12.7365 31.9872 12.2441 32.2736 11.8203C32.5624 11.3965 32.9247 11.0663 33.3603 10.8295C33.7959 10.5928 34.2812 10.4744 34.8162 10.4744C35.1761 10.4744 35.5016 10.5324 35.7928 10.6484C36.0864 10.7621 36.3302 10.9349 36.5243 11.1669C36.7185 11.3965 36.851 11.6842 36.9221 12.0298C36.9954 12.3755 36.9943 12.7803 36.9185 13.2443L36.851 13.6598H32.2488L32.3944 12.7223H35.5762C35.6117 12.5045 35.5975 12.3116 35.5336 12.1435C35.4696 11.9754 35.3631 11.844 35.214 11.7493C35.0648 11.6522 34.8813 11.6037 34.6635 11.6037C34.441 11.6037 34.2327 11.6581 34.0385 11.767C33.8444 11.8759 33.681 12.0192 33.5485 12.1967C33.4183 12.3719 33.3342 12.5625 33.2963 12.7685L33.1294 13.6989C33.0821 13.9853 33.0916 14.2232 33.1578 14.4126C33.2265 14.602 33.3449 14.7441 33.513 14.8388C33.681 14.9311 33.8941 14.9773 34.1522 14.9773C34.3203 14.9773 34.4777 14.9536 34.6245 14.9062C34.7736 14.8589 34.9062 14.7891 35.0222 14.6967C35.1382 14.602 35.2329 14.4848 35.3063 14.3452L36.6877 14.4375C36.5598 14.7737 36.3657 15.0672 36.1053 15.3182C35.8449 15.5668 35.5312 15.7609 35.1642 15.9006C34.7997 16.0379 34.3913 16.1065 33.9391 16.1065ZM41.2997 10.5455L41.1115 11.6818H37.745L37.9332 10.5455H41.2997ZM37.7912 16L38.7678 10.1513C38.8317 9.75592 38.9619 9.42803 39.1584 9.16761C39.3572 8.9072 39.6023 8.71188 39.8935 8.58168C40.187 8.45147 40.5043 8.38636 40.8452 8.38636C41.0772 8.38636 41.2867 8.40412 41.4737 8.43963C41.6631 8.47514 41.8004 8.5071 41.8857 8.53551L41.4347 9.67188C41.3778 9.65294 41.308 9.63518 41.2251 9.61861C41.1423 9.60204 41.0547 9.59375 40.9624 9.59375C40.7422 9.59375 40.58 9.64583 40.4759 9.75C40.3741 9.8518 40.3054 9.99503 40.2699 10.1797L39.3004 16H37.7912ZM41.3113 16L42.2203 10.5455H43.7331L42.824 16H41.3113ZM43.133 9.83523C42.9081 9.83523 42.7222 9.76065 42.5755 9.61151C42.431 9.45999 42.3719 9.28007 42.3979 9.07173C42.4239 8.85866 42.5257 8.67874 42.7033 8.53196C42.8809 8.38281 43.0821 8.30824 43.307 8.30824C43.5319 8.30824 43.7154 8.38281 43.8574 8.53196C43.9995 8.67874 44.0587 8.85866 44.035 9.07173C44.0113 9.28007 43.9107 9.45999 43.7331 9.61151C43.5579 9.76065 43.3579 9.83523 43.133 9.83523ZM47.8462 10.5455L47.658 11.6818H44.3697L44.5614 10.5455H47.8462ZM45.5202 9.23864H47.033L46.1879 14.3239C46.1642 14.4635 46.1677 14.5724 46.1985 14.6506C46.2293 14.7263 46.2802 14.7796 46.3512 14.8104C46.4246 14.8411 46.5122 14.8565 46.614 14.8565C46.685 14.8565 46.7572 14.8506 46.8306 14.8388C46.904 14.8246 46.9596 14.8139 46.9975 14.8068L47.0543 15.9325C46.9691 15.9586 46.8543 15.987 46.7099 16.0178C46.5678 16.0485 46.3997 16.0675 46.2056 16.0746C45.8363 16.0888 45.5238 16.0402 45.2681 15.929C45.0124 15.8153 44.829 15.6413 44.7177 15.407C44.6064 15.1726 44.5827 14.8778 44.6467 14.5227L45.5202 9.23864ZM48.0682 16L49.2756 8.72727H52.1449C52.6941 8.72727 53.1451 8.83262 53.4979 9.04332C53.853 9.25166 54.1016 9.54167 54.2436 9.91335C54.388 10.2827 54.4212 10.7088 54.343 11.1918C54.2625 11.6771 54.0874 12.1044 53.8175 12.4737C53.55 12.8407 53.2019 13.1271 52.7734 13.3331C52.3449 13.5391 51.8501 13.642 51.2891 13.642H49.4602L49.6626 12.4098H51.2429C51.5412 12.4098 51.7957 12.3589 52.0064 12.2571C52.2195 12.1529 52.3887 12.0097 52.5142 11.8274C52.6397 11.6428 52.7214 11.4309 52.7592 11.1918C52.7995 10.9479 52.7865 10.736 52.7202 10.5561C52.6539 10.3762 52.532 10.2365 52.3544 10.1371C52.1792 10.0353 51.9437 9.98438 51.6477 9.98438H50.6108L49.6058 16H48.0682ZM55.9091 16.103C55.5634 16.103 55.264 16.0426 55.0107 15.9219C54.7597 15.7988 54.575 15.6165 54.4567 15.375C54.3383 15.1335 54.3087 14.834 54.3679 14.4766C54.42 14.1735 54.5182 13.9202 54.6626 13.7166C54.8094 13.5107 54.9882 13.3449 55.1989 13.2195C55.4096 13.094 55.6428 12.9981 55.8984 12.9318C56.1565 12.8655 56.4228 12.8205 56.6974 12.7969C57.0147 12.7637 57.2727 12.7318 57.4716 12.701C57.6728 12.6702 57.8232 12.6264 57.9226 12.5696C58.022 12.5104 58.0824 12.4228 58.1037 12.3068V12.2855C58.1392 12.063 58.0978 11.8902 57.9794 11.767C57.8634 11.6416 57.6776 11.5788 57.4219 11.5788C57.152 11.5788 56.9223 11.638 56.733 11.7564C56.5459 11.8748 56.4122 12.0251 56.3317 12.2074L54.9538 12.0938C55.0769 11.7623 55.2628 11.4759 55.5114 11.2344C55.7623 10.9905 56.0642 10.8035 56.4169 10.6733C56.7696 10.5407 57.165 10.4744 57.603 10.4744C57.906 10.4744 58.1889 10.5099 58.4517 10.581C58.7169 10.652 58.9453 10.7621 59.1371 10.9112C59.3312 11.0604 59.4709 11.2521 59.5561 11.4865C59.6437 11.7185 59.6615 11.9967 59.6094 12.321L58.995 16H57.5604L57.6882 15.2436H57.6456C57.5296 15.4141 57.3875 15.5644 57.2195 15.6946C57.0514 15.8224 56.8584 15.9231 56.6406 15.9964C56.4228 16.0675 56.179 16.103 55.9091 16.103ZM56.5163 15.0589C56.7365 15.0589 56.9389 15.0152 57.1236 14.9276C57.3106 14.8376 57.4645 14.7169 57.5852 14.5653C57.7083 14.4138 57.7865 14.2422 57.8196 14.0504L57.9119 13.4716C57.8646 13.5024 57.7959 13.5296 57.706 13.5533C57.6184 13.5769 57.5225 13.5994 57.4183 13.6207C57.3165 13.6397 57.2135 13.6574 57.1094 13.674C57.0052 13.6882 56.9117 13.7024 56.8288 13.7166C56.6465 13.7427 56.4832 13.7841 56.3388 13.8409C56.1944 13.8977 56.0772 13.9747 55.9872 14.0717C55.8973 14.1664 55.8416 14.2848 55.8203 14.4268C55.7872 14.6328 55.8357 14.7902 55.9659 14.8991C56.0985 15.0057 56.282 15.0589 56.5163 15.0589ZM60.5735 18.0455C60.3794 18.0455 60.2018 18.0301 60.0408 17.9993C59.8799 17.9709 59.7473 17.9342 59.6431 17.8892L60.1758 16.7599C60.3439 16.8144 60.4966 16.8428 60.6339 16.8452C60.7736 16.8475 60.9014 16.812 61.0174 16.7386C61.1334 16.6652 61.2399 16.5445 61.337 16.3764L61.4719 16.1456L60.4492 10.5455H61.9833L62.445 14.5582H62.5018L64.3093 10.5455H65.9677L62.8462 16.5895C62.6924 16.8854 62.5101 17.1423 62.2994 17.3601C62.091 17.5779 61.8436 17.746 61.5572 17.8643C61.2731 17.9851 60.9452 18.0455 60.5735 18.0455Z" fill="white"/>
</g>
<defs>
<clipPath id="clip0_198_2155">
<rect width="75" height="24" fill="white"/>
</clipPath>
</defs>
</svg>
