<svg width="393" height="852" viewBox="0 0 393 852" fill="none" xmlns="http://www.w3.org/2000/svg">
<path d="M348 0C372.853 0 393 20.1472 393 45V807C393 831.853 372.853 852 348 852H45C20.1472 852 0 831.853 0 807V45C1.19848e-05 20.1472 20.1472 0 45 0H348Z" fill="white"/>
<rect y="56" width="393" height="165" rx="34" fill="#38A1FF"/>
<path d="M34 0.5H359C377.502 0.5 392.5 15.4985 392.5 34V137C392.5 155.502 377.502 170.5 359 170.5H34C15.4985 170.5 0.5 155.502 0.5 137V34C0.500002 15.4985 15.4985 0.5 34 0.5Z" fill="#182E61" stroke="black"/>
</svg>
