<svg width="42" height="28" viewBox="0 0 42 28" fill="none" xmlns="http://www.w3.org/2000/svg">
<g clip-path="url(#clip0_87_555)">
<path d="M38 0H4C1.79086 0 0 1.79086 0 4V24C0 26.2091 1.79086 28 4 28H38C40.2091 28 42 26.2091 42 24V4C42 1.79086 40.2091 0 38 0Z" fill="#1A1A1A"/>
<path d="M11.2386 9.27273L12.2528 15.9034H12.3338L15.5426 9.27273H17.5881L13.1307 18H10.7528L9.18892 9.27273H11.2386ZM20.4837 9.27273L19.0348 18H17.1896L18.6385 9.27273H20.4837ZM26.31 11.8082C26.3242 11.4531 26.2205 11.179 25.9989 10.9858C25.7802 10.7926 25.4492 10.696 25.006 10.696C24.7049 10.696 24.4435 10.7386 24.2219 10.8239C24.0004 10.9062 23.8228 11.0213 23.6893 11.169C23.5586 11.3139 23.4776 11.4815 23.4464 11.6719C23.4151 11.8281 23.4251 11.9645 23.4762 12.081C23.5302 12.1974 23.614 12.2983 23.7276 12.3835C23.8441 12.4659 23.9819 12.5384 24.141 12.6009C24.3001 12.6605 24.4691 12.7116 24.6481 12.7543L25.3981 12.9418C25.7646 13.027 26.0941 13.1406 26.3867 13.2827C26.6822 13.4247 26.9293 13.5994 27.1282 13.8068C27.3299 14.0142 27.4719 14.2585 27.5543 14.5398C27.6367 14.821 27.6481 15.1435 27.5884 15.5071C27.4975 16.0412 27.2859 16.5043 26.9535 16.8963C26.6211 17.2855 26.185 17.5881 25.6452 17.804C25.1055 18.017 24.4805 18.1236 23.7702 18.1236C23.0657 18.1236 22.4705 18.0156 21.9847 17.7997C21.4989 17.5838 21.1452 17.2642 20.9237 16.8409C20.7049 16.4148 20.6396 15.8878 20.7276 15.2599H22.5131C22.4819 15.5526 22.5245 15.7969 22.641 15.9929C22.7603 16.1861 22.9379 16.3324 23.1737 16.4318C23.4094 16.5284 23.6864 16.5767 24.0046 16.5767C24.32 16.5767 24.5998 16.5312 24.8441 16.4403C25.0913 16.3494 25.2915 16.223 25.445 16.0611C25.5984 15.8991 25.6921 15.7131 25.7262 15.5028C25.7603 15.3068 25.7305 15.142 25.6367 15.0085C25.543 14.875 25.3924 14.7614 25.185 14.6676C24.9805 14.571 24.7262 14.4858 24.4222 14.4119L23.5103 14.1733C22.8058 13.9943 22.2731 13.7145 21.9123 13.3338C21.5515 12.9531 21.4222 12.4403 21.5245 11.7955C21.6154 11.267 21.8356 10.8054 22.185 10.4105C22.5373 10.0128 22.9805 9.70455 23.5146 9.4858C24.0515 9.2642 24.6381 9.15341 25.2745 9.15341C25.9222 9.15341 26.4691 9.26562 26.9151 9.49006C27.3612 9.71165 27.6864 10.0213 27.891 10.419C28.0955 10.8168 28.158 11.2798 28.0785 11.8082H26.31ZM29.7212 18H27.744L32.2056 9.27273H34.5835L36.1431 18H34.1658L33.1048 11.267H33.0366L29.7212 18ZM30.1729 14.5696H34.8434L34.5962 16.0099H29.9258L30.1729 14.5696Z" fill="white"/>
</g>
<defs>
<clipPath id="clip0_87_555">
<rect width="42" height="28" fill="white"/>
</clipPath>
</defs>
</svg>
